<?xml version="1.0" encoding="UTF-8" standalone="no"?>
<!-- Created with Inkscape (http://www.inkscape.org/) -->

<svg
   version="1.1"
   id="svg1"
   width="698"
   height="436"
   viewBox="0 0 698 436"
   sodipodi:docname="my-pets-logo.svg"
   inkscape:version="1.3.2 (091e20e, 2023-11-25, custom)"
   xmlns:inkscape="http://www.inkscape.org/namespaces/inkscape"
   xmlns:sodipodi="http://sodipodi.sourceforge.net/DTD/sodipodi-0.dtd"
   xmlns="http://www.w3.org/2000/svg"
   xmlns:svg="http://www.w3.org/2000/svg">
  <defs
     id="defs1" />
  <sodipodi:namedview
     id="namedview1"
     pagecolor="#ffffff"
     bordercolor="#000000"
     borderopacity="0.25"
     inkscape:showpageshadow="2"
     inkscape:pageopacity="0.0"
     inkscape:pagecheckerboard="0"
     inkscape:deskcolor="#d1d1d1"
     inkscape:zoom="2.690367"
     inkscape:cx="348.83717"
     inkscape:cy="217.81415"
     inkscape:window-width="2674"
     inkscape:window-height="1328"
     inkscape:window-x="1090"
     inkscape:window-y="16"
     inkscape:window-maximized="0"
     inkscape:current-layer="g1" />
  <g
     inkscape:groupmode="layer"
     inkscape:label="Image"
     id="g1">
    <path
       style="fill:#000000;fill-opacity:1;stroke:none"
       d="m 395.42317,436.01555 c -40.61785,-6.31186 -77.63711,-29.953 -100.67678,-64.29396 -8.71068,-12.9834 -11.68623,-18.76561 -17.92344,-34.82961 l -0.85805,-2.2099 -5.789,1.99171 c -18.06544,6.21542 -45.49645,8.1816 -64.8494,4.64822 -24.92125,-4.55002 -49.06313,-16.58099 -67.66266,-33.71931 -6.55095,-6.03629 -15.67433,-16.46317 -18.20397,-20.80485 -0.41788,-0.71722 4.5693,1.36316 11.08263,4.62305 15.09801,7.55651 28.93357,12.71893 42.84241,15.98567 14.88112,3.4951 36.73888,3.66316 49,0.37677 10.71092,-2.87089 24.68559,-10.01319 33.11142,-16.92288 9.82033,-8.05326 30.61194,-28.52561 37.33183,-36.75858 21.49269,-26.3321 34.24875,-57.2255 32.75731,-79.33364 -1.6615,-24.62909 -18.04461,-45.55427 -41.92089,-53.5431 -2.59618,-0.86866 -12.4635,-2.49408 -21.92738,-3.61204 -37.34188,-4.41116 -63.4721,-12.75016 -85.80578,-27.383386 -11.32972,-7.423328 -24.80527,-20.15484 -30.51224,-28.827519 -3.65969,-5.561511 -3.7413,-5.888775 -3.36639,-13.5 0.67789,-13.762686 7.29556,-23.944223 19.43812,-29.906317 5.24492,-2.575301 6.94018,-2.894002 15.394,-2.894002 9.1542,0 9.8094,0.153489 18,4.21674 10.06263,4.991944 14.96319,6.225937 24.85566,6.258814 12.7488,0.04237 25.69991,-4.689549 39.93728,-14.591795 9.20377,-6.4013233 11.53243,-7.3861433 17.4074,-7.3617973 12.49387,0.05178 21.77485,9.4844253 21.79408,22.1502623 0.008,5.178334 -6.84316,18.046514 -14.92038,28.024747 -7.45738,9.212503 -19.97092,19.841074 -29.34572,24.92526 l -6.22832,3.377769 25.5,0.306268 c 41.96496,0.504021 81.18634,-3.088057 124,-11.356501 17.63024,-3.404863 30.26923,-4.41407 64,-5.110313 69.96726,-1.444207 116.57608,8.008459 151.5,30.725489 9.15793,5.956981 27.3613,23.987301 39.81355,39.435061 28.12782,34.89426 42.6451,72.70561 43.00123,112 0.10363,11.43381 -0.27899,15.61328 -2.08739,22.80135 -6.47796,25.74871 -22.22332,46.13406 -50.05122,64.80076 -22.85022,15.32771 -52.9255,26.09369 -88.17617,31.56422 -14.38037,2.23168 -53.56233,2.51707 -68,0.49529 -47.09441,-6.59485 -89.68556,-24.62744 -126.00006,-53.34693 -4.34507,-3.43631 -7.76243,-6.38553 -7.59415,-6.55381 0.16828,-0.16829 7.50075,1.46738 16.29437,3.63481 29.27073,7.21459 50.63227,10.08381 75.16642,10.09611 l 16.36657,0.008 -0.65031,-2.75 c -0.35768,-1.5125 -0.91913,-9.07251 -1.24767,-16.80001 -0.69297,-16.29906 0.60249,-24.65346 6.23616,-40.21671 4.12268,-11.3891 6.86403,-15.29744 12.71721,-18.13091 7.9015,-3.82505 14.82445,-2.61001 24.4241,4.28665 15.79907,11.3505 37.19725,16.0324 55.52412,12.14862 21.05614,-4.46217 45.10901,-24.25362 56.81059,-46.74553 2.22964,-4.28566 4.42278,-7.79211 4.87364,-7.79211 0.45086,0 3.79919,-2.97944 7.44073,-6.62098 6.57397,-6.57377 13.63828,-18.29282 13.63828,-22.62447 0,-1.74004 -0.44578,-1.8933 -3.72019,-1.27902 -8.86278,1.66267 -21.264,7.20474 -29.4091,13.14285 l -4.62929,3.37494 -1.67933,-6.74656 c -4.60196,-18.48803 -17.61268,-35.38865 -33.08542,-42.97719 l -5.20692,-2.55371 -0.53589,-10.60783 c -0.38513,-7.6236 -1.29984,-12.99908 -3.25145,-19.10783 -3.12311,-9.775649 -7.0384,-18.000004 -8.56908,-18.000004 -1.70672,0 -9.4203,5.649084 -15.88096,11.630514 -8.48431,7.85498 -14.49696,16.21611 -20.48236,28.48255 -6.4088,13.13418 -10.51304,18.78707 -20.22603,27.85794 -18.49719,17.27433 -42.89378,26.98323 -67.88564,27.01586 -25.73428,0.0336 -54.08275,14.32535 -74.40942,37.51314 -6.44115,7.3478 -15.7183,20.95682 -19.77599,29.01021 -12.81378,25.43183 -13.28863,56.54736 -1.25483,82.22681 7.94352,16.95103 16.74497,26.80304 32.11127,35.94417 17.78022,10.57712 34.09876,16.68895 55.77872,20.891 16.47991,3.19417 21.17351,6.81741 24.14547,18.63922 2.38837,9.50037 -3.22273,20.6987 -12.47775,24.90246 -5.01808,2.27928 -22.35084,2.42355 -36.01755,0.2998 z M 36.599952,321.56216 C 24.927099,319.59963 11.047742,309.72187 5.9656265,299.7601 3.3664485,294.66529 1.3896375,280.74842 -0.25364952,255.97601 -2.1758745,226.99864 0.86312348,198.27272 8.0165955,177.80209 20.097047,143.23226 43.334163,121.50793 78.703324,111.71722 c 4.02513,-1.11421 7.17513,-1.69625 7,-1.29341 -14.83555,34.12492 -18.81841,50.88273 -18.81841,79.17807 0,25.05144 4.23039,45.39641 14.13945,68 6.07172,13.85022 7.18211,19.22734 5.78129,27.99612 -1.46469,9.16857 -6.0541,17.87281 -12.83286,24.33865 -6.84134,6.52552 -12.11394,9.35072 -20.943903,11.22228 -7.297698,1.54678 -9.33049,1.59667 -16.428939,0.40323 z M 223.20609,240.46791 c -7.92521,-4.03072 -4.10439,-19.90479 7.69296,-31.96136 6.99842,-7.1522 14.38473,-10.8811 21.58087,-10.8949 6.82505,-0.0131 8.92385,2.22137 8.85531,9.42772 -0.13313,13.99804 -17.82798,32.99971 -31.83656,34.18779 -2.26257,0.19189 -5.09423,-0.14978 -6.29258,-0.75925 z m 316.2943,-8.33833 c -8.08154,-2.88041 -15.15679,-12.77922 -12.57805,-17.59764 0.99819,-1.86514 1.78529,-2.09743 5.63609,-1.66339 10.57805,1.1923 21.46819,16.82796 13.76138,19.75808 -1.4108,0.53639 -2.6483,0.9555 -2.75,0.93136 -0.10169,-0.0241 -1.93293,-0.66693 -4.06942,-1.42841 z m -424.11548,-3.52986 c -2.90717,-6.46519 -2.76413,-18.94761 0.28328,-24.72004 5.78793,-10.96355 14.88201,-16.67378 26.65817,-16.73882 4.68917,-0.0259 8.73692,0.61346 12.05855,1.90468 l 5,1.94367 -7.54214,1.17997 c -19.12516,2.99214 -31.60009,15.88465 -33.77493,34.90549 l -0.68293,5.9728 z m 462.12887,-12.9173 c -0.8845,-5.53133 -5.73156,-10.63398 -11.04892,-11.63152 -4.24085,-0.79559 -3.10195,-2.40734 1.71971,-2.43371 8.22416,-0.045 13.8739,8.56588 10.79203,16.44834 -0.60503,1.54745 -0.91507,1.04236 -1.46282,-2.38311 z m -31.62887,-29.9302 c 0,-1.78731 -0.69685,-4.59721 -1.54855,-6.24422 -1.66069,-3.21142 -6.83983,-6.89627 -9.70145,-6.90238 -0.9625,-0.002 -1.75,-0.45374 -1.75,-1.00374 0,-1.36676 6.32771,-1.26344 9.43892,0.15413 1.39317,0.63476 3.25184,2.25116 4.13039,3.592 1.81364,2.76795 2.14767,10.93689 0.51402,12.57054 -0.77777,0.77777 -1.08333,0.16676 -1.08333,-2.16633 z M 180.2931,173.10188 c -1.4227,-2.98231 -1.9021,-6.1626 -1.88424,-12.5 0.0204,-7.2349 0.42013,-9.25757 2.68578,-13.59002 3.11441,-5.95546 8.35995,-10.86084 14.73946,-13.78364 6.04949,-2.77159 17.80666,-2.86161 23.55081,-0.18031 l 4,1.86715 -5.5494,0.78239 c -10.16007,1.43243 -16.88868,4.66749 -23.53811,11.31692 -6.77975,6.77975 -9.75222,13.08225 -11.23138,23.81377 l -0.86473,6.27374 z"
       id="path1" />
  </g>
</svg>
